<svg width="56" height="43" viewBox="0 0 56 43" fill="none" xmlns="http://www.w3.org/2000/svg">
<path fill-rule="evenodd" clip-rule="evenodd" d="M29 25.7727C36.1112 25.7727 41.7826 20.2272 41.7826 13.5C41.7826 6.7728 36.1112 1.22727 29 1.22727C21.8888 1.22727 16.2174 6.7728 16.2174 13.5C16.2174 20.2272 21.8888 25.7727 29 25.7727ZM29 27C36.732 27 43 20.9558 43 13.5C43 6.04416 36.732 0 29 0C21.268 0 15 6.04416 15 13.5C15 20.9558 21.268 27 29 27Z" fill="black"/>
<path fill-rule="evenodd" clip-rule="evenodd" d="M29 25.7727C36.1112 25.7727 41.7826 20.2272 41.7826 13.5C41.7826 6.7728 36.1112 1.22727 29 1.22727C21.8888 1.22727 16.2174 6.7728 16.2174 13.5C16.2174 20.2272 21.8888 25.7727 29 25.7727ZM29 27C36.732 27 43 20.9558 43 13.5C43 6.04416 36.732 0 29 0C21.268 0 15 6.04416 15 13.5C15 20.9558 21.268 27 29 27Z" fill="black" fill-opacity="0.2"/>
<path fill-rule="evenodd" clip-rule="evenodd" d="M42 41.7727C49.1112 41.7727 54.7826 36.2272 54.7826 29.5C54.7826 22.7728 49.1112 17.2273 42 17.2273C34.8888 17.2273 29.2174 22.7728 29.2174 29.5C29.2174 36.2272 34.8888 41.7727 42 41.7727ZM42 43C49.732 43 56 36.9558 56 29.5C56 22.0442 49.732 16 42 16C34.268 16 28 22.0442 28 29.5C28 36.9558 34.268 43 42 43Z" fill="black"/>
<path fill-rule="evenodd" clip-rule="evenodd" d="M42 41.7727C49.1112 41.7727 54.7826 36.2272 54.7826 29.5C54.7826 22.7728 49.1112 17.2273 42 17.2273C34.8888 17.2273 29.2174 22.7728 29.2174 29.5C29.2174 36.2272 34.8888 41.7727 42 41.7727ZM42 43C49.732 43 56 36.9558 56 29.5C56 22.0442 49.732 16 42 16C34.268 16 28 22.0442 28 29.5C28 36.9558 34.268 43 42 43Z" fill="black" fill-opacity="0.2"/>
<path fill-rule="evenodd" clip-rule="evenodd" d="M14 41.7727C21.1112 41.7727 26.7826 36.2272 26.7826 29.5C26.7826 22.7728 21.1112 17.2273 14 17.2273C6.88879 17.2273 1.21739 22.7728 1.21739 29.5C1.21739 36.2272 6.88879 41.7727 14 41.7727ZM14 43C21.732 43 28 36.9558 28 29.5C28 22.0442 21.732 16 14 16C6.26801 16 0 22.0442 0 29.5C0 36.9558 6.26801 43 14 43Z" fill="black"/>
<path fill-rule="evenodd" clip-rule="evenodd" d="M14 41.7727C21.1112 41.7727 26.7826 36.2272 26.7826 29.5C26.7826 22.7728 21.1112 17.2273 14 17.2273C6.88879 17.2273 1.21739 22.7728 1.21739 29.5C1.21739 36.2272 6.88879 41.7727 14 41.7727ZM14 43C21.732 43 28 36.9558 28 29.5C28 22.0442 21.732 16 14 16C6.26801 16 0 22.0442 0 29.5C0 36.9558 6.26801 43 14 43Z" fill="black" fill-opacity="0.2"/>
</svg>
